<?xml version="1.0" encoding="UTF-8" standalone="no"?>
<!DOCTYPE svg PUBLIC "-//W3C//DTD SVG 1.1//EN"
 "http://www.w3.org/Graphics/SVG/1.1/DTD/svg11.dtd">
<!-- Generated by graphviz version 2.43.0 (0)
 -->
<!-- Title: %3 Pages: 1 -->
<svg width="282pt" height="179pt"
 viewBox="0.00 0.00 282.24 179.00" xmlns="http://www.w3.org/2000/svg" xmlns:xlink="http://www.w3.org/1999/xlink">
<g id="graph0" class="graph" transform="scale(1 1) rotate(0) translate(4 175)">
<title>%3</title>
<polygon fill="white" stroke="transparent" points="-4,4 -4,-175 278.24,-175 278.24,4 -4,4"/>
<g id="clust1" class="cluster">
<title>cluster_WSLS</title>
<polygon fill="none" stroke="black" points="8,-8 8,-163 104,-163 104,-8 8,-8"/>
<text text-anchor="middle" x="56" y="-147.8" font-family="Times,serif" font-size="14.00">WSLS</text>
</g>
<!-- theta1 -->
<g id="node1" class="node">
<title>theta1</title>
<ellipse fill="none" stroke="black" cx="56" cy="-110" rx="27" ry="18"/>
<ellipse fill="none" stroke="black" cx="56" cy="-110" rx="31" ry="22"/>
<text text-anchor="start" x="47.5" y="-107.3" font-family="Times,serif" font-size="14.00">θ</text>
<text text-anchor="start" x="56.5" y="-107.3" font-family="Times,serif" baseline-shift="sub" font-size="14.00">1</text>
</g>
<!-- choice1 -->
<g id="node2" class="node">
<title>choice1</title>
<ellipse fill="lightgrey" stroke="black" cx="56" cy="-34" rx="40.09" ry="18"/>
<text text-anchor="middle" x="56" y="-30.3" font-family="Times,serif" font-size="14.00">choice</text>
</g>
<!-- theta1&#45;&gt;choice1 -->
<g id="edge2" class="edge">
<title>theta1&#45;&gt;choice1</title>
<path fill="none" stroke="black" d="M56,-87.99C56,-80.06 56,-70.91 56,-62.48"/>
<polygon fill="black" stroke="black" points="59.5,-62.31 56,-52.31 52.5,-62.31 59.5,-62.31"/>
</g>
<!-- feedback -->
<g id="node3" class="node">
<title>feedback</title>
<ellipse fill="lightgrey" stroke="black" cx="193" cy="-110" rx="81.49" ry="18"/>
<text text-anchor="middle" x="193" y="-106.3" font-family="Times,serif" font-size="14.00">previous result</text>
</g>
<!-- feedback&#45;&gt;choice1 -->
<g id="edge1" class="edge">
<title>feedback&#45;&gt;choice1</title>
<path fill="none" stroke="black" d="M163.61,-93.13C141.91,-81.4 112.34,-65.43 89.69,-53.2"/>
<polygon fill="black" stroke="black" points="91.22,-50.05 80.76,-48.37 87.89,-56.2 91.22,-50.05"/>
</g>
</g>
</svg>
