<?xml version="1.0" encoding="UTF-8" standalone="no"?>
<!DOCTYPE svg PUBLIC "-//W3C//DTD SVG 1.1//EN"
 "http://www.w3.org/Graphics/SVG/1.1/DTD/svg11.dtd">
<!-- Generated by graphviz version 2.43.0 (0)
 -->
<!-- Title: %3 Pages: 1 -->
<svg width="468pt" height="290pt"
 viewBox="0.00 0.00 468.24 290.00" xmlns="http://www.w3.org/2000/svg" xmlns:xlink="http://www.w3.org/1999/xlink">
<g id="graph0" class="graph" transform="scale(1 1) rotate(0) translate(4 286)">
<title>%3</title>
<polygon fill="white" stroke="transparent" points="-4,4 -4,-286 464.24,-286 464.24,4 -4,4"/>
<g id="clust1" class="cluster">
<title>cluster_TOM</title>
<polygon fill="none" stroke="black" points="8,-8 8,-274 290,-274 290,-8 8,-8"/>
<text text-anchor="middle" x="149" y="-258.8" font-family="Times,serif" font-size="14.00">ToM</text>
</g>
<g id="clust2" class="cluster">
<title>cluster_estimated_WSLS</title>
<polygon fill="none" stroke="black" points="88,-84 88,-243 282,-243 282,-84 88,-84"/>
<text text-anchor="middle" x="185" y="-227.8" font-family="Times,serif" font-size="14.00">Estimated WSLS</text>
</g>
<!-- theta2 -->
<g id="node1" class="node">
<title>theta2</title>
<ellipse fill="none" stroke="black" cx="185" cy="-190" rx="27" ry="18"/>
<ellipse fill="none" stroke="black" cx="185" cy="-190" rx="31" ry="22"/>
<text text-anchor="start" x="176.5" y="-187.3" font-family="Times,serif" font-size="14.00">θ</text>
<text text-anchor="start" x="185.5" y="-187.3" font-family="Times,serif" baseline-shift="sub" font-size="14.00">1</text>
</g>
<!-- choice2 -->
<g id="node3" class="node">
<title>choice2</title>
<ellipse fill="none" stroke="black" cx="185" cy="-110" rx="89.08" ry="18"/>
<text text-anchor="middle" x="185" y="-106.3" font-family="Times,serif" font-size="14.00">estimated choice</text>
</g>
<!-- theta2&#45;&gt;choice2 -->
<g id="edge1" class="edge">
<title>theta2&#45;&gt;choice2</title>
<path fill="none" stroke="black" d="M185,-167.69C185,-158.64 185,-147.99 185,-138.37"/>
<polygon fill="black" stroke="black" points="188.5,-138.09 185,-128.09 181.5,-138.09 188.5,-138.09"/>
</g>
<!-- theta3 -->
<g id="node2" class="node">
<title>theta3</title>
<ellipse fill="none" stroke="black" cx="47" cy="-110" rx="27" ry="18"/>
<ellipse fill="none" stroke="black" cx="47" cy="-110" rx="31" ry="22"/>
<text text-anchor="start" x="38.5" y="-107.3" font-family="Times,serif" font-size="14.00">θ</text>
<text text-anchor="start" x="47.5" y="-107.3" font-family="Times,serif" baseline-shift="sub" font-size="14.00">2</text>
</g>
<!-- choice3 -->
<g id="node4" class="node">
<title>choice3</title>
<ellipse fill="lightgrey" stroke="black" cx="120" cy="-34" rx="40.09" ry="18"/>
<text text-anchor="middle" x="120" y="-30.3" font-family="Times,serif" font-size="14.00">choice</text>
</g>
<!-- theta3&#45;&gt;choice3 -->
<g id="edge3" class="edge">
<title>theta3&#45;&gt;choice3</title>
<path fill="none" stroke="black" d="M64.3,-91.46C74.07,-81.56 86.41,-69.05 96.99,-58.33"/>
<polygon fill="black" stroke="black" points="99.79,-60.47 104.32,-50.9 94.8,-55.56 99.79,-60.47"/>
</g>
<!-- choice2&#45;&gt;choice3 -->
<g id="edge2" class="edge">
<title>choice2&#45;&gt;choice3</title>
<path fill="none" stroke="black" d="M170.25,-92.21C161.57,-82.33 150.45,-69.67 140.88,-58.77"/>
<polygon fill="black" stroke="black" points="143.47,-56.42 134.24,-51.22 138.21,-61.04 143.47,-56.42"/>
</g>
<!-- feedback -->
<g id="node5" class="node">
<title>feedback</title>
<ellipse fill="lightgrey" stroke="black" cx="379" cy="-190" rx="81.49" ry="18"/>
<text text-anchor="middle" x="379" y="-186.3" font-family="Times,serif" font-size="14.00">previous result</text>
</g>
<!-- feedback&#45;&gt;choice2 -->
<g id="edge4" class="edge">
<title>feedback&#45;&gt;choice2</title>
<path fill="none" stroke="black" d="M341.59,-173.96C310.63,-161.51 266.43,-143.74 232.89,-130.25"/>
<polygon fill="black" stroke="black" points="233.87,-126.88 223.28,-126.39 231.26,-133.37 233.87,-126.88"/>
</g>
</g>
</svg>
